<svg viewBox="0 0 28 27" fill="none" xmlns="http://www.w3.org/2000/svg">
 <title>Linkedln icon</title>
 <path d="M6.26539 9.04229V26.7383H0.377391V9.04229H6.26539ZM6.64939 3.57029C6.64939 5.26629 5.36939 6.61029 3.32139 6.61029H3.28939C1.30539 6.61029 0.0253906 5.26629 0.0253906 3.57029C0.0253906 1.84229 1.33739 0.498291 3.35339 0.498291C5.36939 0.498291 6.61739 1.84229 6.64939 3.57029ZM27.4494 16.5943V26.7383H21.5934V17.2663C21.5934 14.8983 20.7294 13.2663 18.5854 13.2663C16.9854 13.2663 15.9934 14.3543 15.5774 15.4103C15.4494 15.7943 15.3854 16.3063 15.3854 16.8503V26.7383H9.49739C9.59339 10.7063 9.49739 9.04229 9.49739 9.04229H15.3854V11.6023H15.3534C16.1214 10.3863 17.4974 8.62629 20.6974 8.62629C24.5694 8.62629 27.4494 11.1543 27.4494 16.5943Z" fill="currentcolor"></path>
</svg>